<svg xmlns="http://www.w3.org/2000/svg" version="1.1" xmlns:xlink="http://www.w3.org/1999/xlink" xmlns:svgjs="http://svgjs.com/svgjs" width="1440" height="560" preserveAspectRatio="none" viewBox="0 0 1440 560"><g mask="url(&quot;#SvgjsMask1000&quot;)" fill="none"><rect width="1440" height="560" x="0" y="0" fill="#0e2a47"></rect><path d="M0,565.192C104.042,557.109,197.22,495.751,271.482,422.434C337.238,357.514,352.1,262.377,391.416,178.754C431.28,93.965,510.063,21.019,504.174,-72.489C498.194,-167.433,435.616,-254.006,360.486,-312.363C291.167,-366.206,197.432,-362.82,110.965,-377.911C34.619,-391.235,-38.718,-398.964,-116.143,-395.546C-216.841,-391.1,-337.846,-425.709,-409.609,-354.928C-480.587,-284.922,-460.274,-164.194,-451.38,-64.899C-443.882,18.81,-385.98,84.93,-362.97,165.763C-334.319,266.412,-370.394,389.388,-300.017,466.835C-227.776,546.333,-107.095,573.512,0,565.192" fill="#0b2239"></path><path d="M1440 1186.327C1553.151 1160.905 1610.16 1038.882 1703.711 970.342 1789.612 907.406 1914.741 893.4970000000001 1966.6190000000001 800.499 2019.2649999999999 706.125 2001.79 587.833 1975.574 482.996 1951.049 384.922 1876.85 313.59000000000003 1823.402 227.77999999999997 1758.223 123.13600000000002 1740.88-29.595000000000027 1626.954-76.70799999999997 1513.908-123.457 1390.177-42.460000000000036 1275.98 1.4009999999999536 1170.3 41.990999999999985 1068.974 89.18099999999998 988.2909999999999 168.59199999999998 902.698 252.83499999999998 834.026 352.565 801.68 468.223 766.345 594.57 743.236 733.9780000000001 796.658 853.804 850.225 973.9549999999999 970.421 1048.433 1087.285 1108.836 1196.432 1165.25 1320.124 1213.26 1440 1186.327" fill="#113255"></path></g><defs><mask id="SvgjsMask1000"><rect width="1440" height="560" fill="#ffffff"></rect></mask></defs></svg>